<svg xmlns="http://www.w3.org/2000/svg" xmlns:xlink="http://www.w3.org/1999/xlink" version="1.1" id="Camada_1" x="0px" y="0px" viewBox="0 0 401 150" style="enable-background:new 0 0 401 150;" xml:space="preserve" width="401"  height="150" >
<style type="text/css">
	.st0{fill:#FFD400;}
	.st1{fill:#FFFFFF;}
</style>
<path class="st0" d="M102.1,110.7c-1.9-5.1-4.2-11.5-6.2-18c-3.7-12.3-6.8-24.2-6.8-24.2c2.4-1.6,23.8-16.1,39.2-24.9  c0.2-0.1,4.8-2.7,5.2-5.9c0.1-0.9,0-1.7-0.3-2.6c-0.8-2.3-2.7-4.4-8.2-4.7c-4.3-0.3-11.8-0.8-20.2-0.3c-8.1,0.3-16.8,1.2-23.3,2.3  c0,0-2.6-15.9-3.5-22.5c-0.1-0.4-0.5-2.9-1.2-3.9c-0.7-1.1-1.8-2.1-3.6-2.4c-1.9-0.3-3.3,0.2-4.3,0.9c-1,0.7-2.4,2.7-2.7,3.2  c-4.2,5.8-15.8,23-21.6,32.9c0,0-18.1,5.6-29.2,10.2c-3.3,1.4-3.6,3-3.7,3.9c-0.1,0.6,0,2.3,2.5,4.5C17.5,61.6,27.6,70,27.6,70  c-3.6,5.7-17.3,33.7-18.6,41.5c-0.4,2.2-0.4,4.6,1.3,6.7c1,1.3,2.9,2.3,4.8,2.3c2.3,0,5.5-2.4,6.9-3.4c10.9-7.8,32.3-24.2,32.3-24.2  c8,7.2,25,22.8,34,31.2c1,1,4.4,4.1,7.6,4.1c6.2,0.2,8.2-5.1,8.4-6.9C104.8,117,102.7,112.3,102.1,110.7L102.1,110.7z M18.6,55.7  c-0.2-0.2-1.1-0.8-1-1.6c0-0.4,0.2-0.8,0.7-1.1c0.2-0.1,0.9-0.4,1-0.5c1.9-0.7,10.4-3.8,21.9-6.5c-3,5.2-5,8.5-6.4,10.9  c-3.2,5.6-3.2,5.8-4.5,8.2C30.3,65.1,20.9,57.6,18.6,55.7L18.6,55.7z M23.8,100.8c-0.3,0.2-1.4,0.9-1.7,1.1  c-2.4,1.2-2.9-0.3-3.1-0.9c-0.3-1.2,0.7-3.3,0.8-3.5c2.3-5,11.5-24.5,11.5-24.5s11.4,9.8,14.2,12.2C45.6,85.3,29,97.2,23.8,100.8  L23.8,100.8z M82.9,93.7c1.9,6.5,4.1,13.3,5.2,16.7c0.3,0.9,0.3,1.7,0,2.2c-0.3,0.5-0.9,0.7-1.6,0.3c-0.3-0.2-1.2-0.9-1.3-1  c-4.2-3.7-25.8-22.6-25.8-22.6L78,76.1C78,76.1,80.4,85.3,82.9,93.7L82.9,93.7z M50.4,81.7c0,0-15.6-13-16.5-13.7  c0,0,9.9-18.6,13-23.3c1.9-0.5,16.4-3.2,23.3-4c0,0,2,11.3,5.1,24.2C75.3,64.9,55.2,78.3,50.4,81.7z M94,38.5  c6.7-0.3,13.8-0.4,14.4-0.4c1.7,0,3.1,0.2,3.4,0.9c0.3,1-0.4,2.1-1.6,3c-0.3,0.2-4.3,2.8-8.6,5.8c-6.6,4.5-14.9,9.9-14.9,9.9  c0.1,0.2-3.2-14.4-3.8-18.3C82.8,39.3,88.3,38.7,94,38.5L94,38.5z M63.5,19.4c0.1-0.2,1.2-1.6,2-1.6s1.1,1,1.2,1.5  c0.2,1.2,0.4,3,0.9,5.9c0.7,4.2,1.5,9.1,1.5,9.1c-4.5,0.9-15.2,3.4-18.7,4.4C54.2,32.7,61.2,22.4,63.5,19.4z"/>
<g>
	<g>
		<path class="st1" d="M146.1,69.5c-1.2-2.3-1.9-5.2-1.9-8.7V34.7h8.7v25.6c0,2.2,0.4,4.1,1.2,5.5c1.5,2.7,4.3,4.2,8.2,4.2    s6.6-1.5,8.1-4.2c0.8-1.5,1.2-3.4,1.2-5.6V34.7h8.7v26.1c0,3.4-0.6,6.4-1.9,8.7c-2.7,5.3-8.5,7.8-16.2,7.8S148.8,74.9,146.1,69.5    L146.1,69.5z"/>
		<path class="st1" d="M217.7,76.7l-17.6-23c-1.5-2-2.9-4-4.3-5.8h-0.1c0.2,1.5,0.2,4.1,0.2,6.2v22.6h-8.7v-42h8.7l16.9,22.1    c1.7,2.1,3,4,4.3,5.8h0.1c-0.1-2.2-0.1-5-0.1-7V34.7h8.7v42H217.7z"/>
		<path class="st1" d="M232.8,34.7h8.7v42h-8.7V34.7z"/>
		<path class="st1" d="M248.6,34.7h11c3.8,0,7,0.5,9.5,1.8c4.6,2.2,7.1,6.3,7.1,12.1c0,4.9-2.1,10.1-8.4,12.5    c-2.4,0.9-5.3,1.5-9,1.5h-1.5v14.1h-8.7L248.6,34.7L248.6,34.7z M259.3,55.6c1.9,0,3.4-0.2,4.5-0.8c2.2-1,3.2-3.2,3.2-6.1    c0-2.4-1-4.6-3.1-5.9c-1.2-0.7-2.7-1-4.8-1h-1.9v13.8H259.3z"/>
		<path class="st1" d="M281.6,34.7h24.3l-2.3,7.4h-13.2v9.7h13.3v7.3h-13.3v10.2h15.5v7.4h-24.2C281.6,76.7,281.6,34.7,281.6,34.7z     M289.9,23h6.8l6.4,9.4h-6.7l-3.2-4.5l-3.1,4.5h-6.6L289.9,23z"/>
	</g>
	<g>
		<path class="st1" d="M160.3,106.4c-2.1,1.1-4.1,1.5-6,1.5c-6.3,0-10-4.3-10-10.3s4.2-10.7,10.4-10.7c2.2,0,4.1,0.5,5.2,1.1v2.6    c-1.5-0.8-3.1-1.3-5.1-1.3c-4.7,0-7.5,3.7-7.5,8.2c0,4.8,2.8,8.1,7.4,8.1c1.9,0,3.5-0.6,4.9-1.3L160.3,106.4L160.3,106.4z"/>
		<path class="st1" d="M164.8,100.8c0,2.8,1.8,4.8,4.6,4.8c1.4,0,2.6-0.4,3.7-1l0.8,1.9c-1.4,0.9-3.1,1.3-4.8,1.3    c-4.9,0-7.1-3.6-7.1-7.8c0-4.5,2.5-7.6,6.2-7.6s6.1,3,6.1,7.7v0.7H164.8L164.8,100.8z M171.5,98.7c0-2.1-1-4.1-3.2-4.1    s-3.4,1.9-3.4,4.1H171.5z"/>
		<path class="st1" d="M177.3,92.8h2.3l0.3,1.8c1.6-1.3,3.2-2.2,5.1-2.2c2.3,0,4.5,1.4,4.5,5.2v9.9h-2.7v-9c0-2.1-0.5-3.7-2.5-3.7    c-1.5,0-2.9,0.9-4.2,2v10.7h-2.7L177.3,92.8L177.3,92.8z"/>
		<path class="st1" d="M194.4,104.2V95h-2.5v-2.2h2.5v-3.4l2.7-0.9v4.2h4.4l-0.8,2.2h-3.7v8.7c0,1.3,0.5,1.9,1.5,1.9    s1.8-0.4,2.4-0.8l0.9,1.9c-1,0.7-2.4,1.2-3.9,1.2C195.8,107.9,194.4,106.6,194.4,104.2L194.4,104.2z"/>
		<path class="st1" d="M204.3,92.8h2.3l0.3,1.8c1.6-1.7,2.8-2.2,4.1-2.2c0.6,0,1.3,0.2,1.8,0.4l-1,2.4c-0.5-0.2-0.9-0.4-1.4-0.4    c-1,0-2,0.6-3.4,1.9v10.7h-2.7V92.8L204.3,92.8z"/>
		<path class="st1" d="M213.4,100.2c0-4.4,2.8-7.7,7-7.7s7,3.4,7,7.7s-2.8,7.7-7,7.7S213.4,104.5,213.4,100.2z M224.5,100.2    c0-3.2-1.6-5.4-4.1-5.4s-4.2,2.3-4.2,5.4s1.6,5.4,4.1,5.4S224.5,103.3,224.5,100.2L224.5,100.2z"/>
		<path class="st1" d="M238.2,103.6c-0.4-1-0.6-2.2-0.6-3.5V87h2.8v12.9c0,1.1,0.1,2,0.5,2.8c0.7,1.8,2.3,2.8,4.7,2.8s4-1,4.7-2.8    c0.3-0.8,0.4-1.8,0.4-2.9V87h2.8v13.1c0,1.4-0.2,2.6-0.6,3.6c-1.1,2.7-3.6,4.2-7.3,4.2S239.3,106.4,238.2,103.6L238.2,103.6z"/>
		<path class="st1" d="M257.7,92.8h2.3l0.3,1.8c1.6-1.3,3.2-2.2,5.1-2.2c2.3,0,4.5,1.4,4.5,5.2v9.9h-2.7v-9c0-2.1-0.5-3.7-2.5-3.7    c-1.5,0-2.9,0.9-4.2,2v10.7h-2.7C257.7,107.5,257.7,92.8,257.7,92.8z"/>
		<path class="st1" d="M273.5,88c0-1,0.7-1.8,1.8-1.8s1.8,0.8,1.8,1.8s-0.8,1.8-1.8,1.8S273.5,89,273.5,88z M273.9,92.8h2.7v14.7    h-2.7V92.8z"/>
		<path class="st1" d="M278.9,92.8h2.9l4.1,11.2h0.1l4-11.2h2.8l-5.8,14.8h-2.2L278.9,92.8L278.9,92.8z"/>
		<path class="st1" d="M296.6,100.8c0,2.8,1.8,4.8,4.6,4.8c1.4,0,2.6-0.4,3.7-1l0.8,1.9c-1.4,0.9-3.1,1.3-4.8,1.3    c-4.9,0-7.1-3.6-7.1-7.8c0-4.5,2.5-7.6,6.2-7.6s6.1,3,6.1,7.7v0.7H296.6L296.6,100.8z M303.3,98.7c0-2.1-1-4.1-3.2-4.1    s-3.4,1.9-3.4,4.1H303.3L303.3,98.7z"/>
		<path class="st1" d="M309.1,92.8h2.3l0.3,1.8c1.6-1.7,2.8-2.2,4.1-2.2c0.6,0,1.3,0.2,1.8,0.4l-1,2.4c-0.5-0.2-0.9-0.4-1.4-0.4    c-1,0-2,0.6-3.4,1.9v10.7h-2.7L309.1,92.8L309.1,92.8z"/>
		<path class="st1" d="M318.6,104.5c0.9,0.6,2.2,1.1,3.8,1.1s3-0.6,3-2.1c0-3-6.9-2-6.9-6.9c0-2.3,1.8-4.2,5.2-4.2    c1.5,0,2.8,0.3,3.9,0.7v2.4c-1.1-0.5-2.3-0.8-3.7-0.8c-1.4,0-2.6,0.4-2.6,1.8c0,3,6.9,1.9,6.9,7c0,3-2.6,4.4-5.6,4.4    c-2.1,0-3.7-0.7-4.8-1.3L318.6,104.5L318.6,104.5z"/>
		<path class="st1" d="M330.8,88c0-1,0.7-1.8,1.8-1.8s1.8,0.8,1.8,1.8s-0.8,1.8-1.8,1.8S330.8,89,330.8,88z M331.2,92.8h2.7v14.7    h-2.7V92.8z"/>
		<path class="st1" d="M339.2,104.2V95h-2.5v-2.2h2.5v-3.4l2.7-0.9v4.2h4.4l-0.8,2.2h-3.7v8.7c0,1.3,0.5,1.9,1.5,1.9    s1.8-0.4,2.4-0.8l0.9,1.9c-1,0.7-2.4,1.2-3.9,1.2C340.5,107.9,339.1,106.6,339.2,104.2L339.2,104.2z"/>
		<path class="st1" d="M357.3,106c-1.1,1.1-2.6,1.9-4.4,1.9c-2.7,0-4.7-1.8-4.7-4.6c0-2,1-3.3,2.5-4c1-0.5,2.2-0.7,3.7-0.8l2.7-0.1    v-0.8c0-2.1-1.3-3-3-3c-1.7,0-3,0.5-4,1.2l-1-1.9c1.7-1,3.6-1.5,5.3-1.5c3.3,0,5.5,1.6,5.5,5.1v5.4c0,2.5,0.1,3.9,0.3,4.6h-2.4    L357.3,106L357.3,106z M354.7,100.5c-1.2,0-2,0.2-2.6,0.5c-0.8,0.4-1.1,1.2-1.1,2.1c0,1.5,1,2.5,2.6,2.5c1.7,0,2.9-1,3.6-1.7v-3.6    L354.7,100.5L354.7,100.5z M354.7,86.4h3L355,91h-2.1L354.7,86.4z"/>
		<path class="st1" d="M363.5,92.8h2.3l0.3,1.8c1.6-1.7,2.8-2.2,4.1-2.2c0.6,0,1.3,0.2,1.8,0.4l-1,2.4c-0.5-0.2-0.9-0.4-1.4-0.4    c-1,0-2,0.6-3.4,1.9v10.7h-2.7L363.5,92.8L363.5,92.8z"/>
		<path class="st1" d="M373.6,88c0-1,0.7-1.8,1.8-1.8s1.8,0.8,1.8,1.8s-0.8,1.8-1.8,1.8S373.6,89,373.6,88z M374,92.8h2.7v14.7H374    V92.8z"/>
		<path class="st1" d="M380,100.2c0-4.4,2.8-7.7,7-7.7s7,3.4,7,7.7s-2.8,7.7-7,7.7S380,104.5,380,100.2z M391.2,100.2    c0-3.2-1.6-5.4-4.1-5.4s-4.2,2.3-4.2,5.4s1.6,5.4,4.1,5.4S391.2,103.3,391.2,100.2L391.2,100.2z"/>
		<path class="st1" d="M143.8,133.7c0-4.7,3.4-7.9,7.8-7.9c0.8,0,1.6,0.1,2.3,0.3v-7.2h2.7v21.3c-1.1,0.6-3.1,1-4.9,1    C147.4,141.2,143.8,138.7,143.8,133.7z M153.9,138.6v-10.1c-0.7-0.2-1.2-0.3-2.1-0.3c-2.8,0-5.1,2-5.1,5.6c0,3.2,2,5.2,5.1,5.2    C152.5,138.9,153.4,138.8,153.9,138.6L153.9,138.6z"/>
		<path class="st1" d="M164.2,134.2c0,2.8,1.8,4.8,4.6,4.8c1.4,0,2.6-0.4,3.7-1l0.8,1.9c-1.4,0.9-3.1,1.3-4.8,1.3    c-4.9,0-7.1-3.6-7.1-7.8c0-4.5,2.5-7.6,6.2-7.6s6.1,3,6.1,7.7v0.7H164.2L164.2,134.2z M170.9,132.1c0-2.1-1-4.1-3.2-4.1    s-3.4,1.9-3.4,4.1H170.9z"/>
		<path class="st1" d="M181.2,144c0.5,0.2,1.1,0.3,1.6,0.3c2.2,0,2.7-1.4,2.7-3.3v-20.6h2.8v21.1c0,3.1-1.5,5.2-5.3,5.2    c-0.9,0-1.7-0.2-2.3-0.3L181.2,144L181.2,144z"/>
		<path class="st1" d="M191.9,133.6c0-4.4,2.8-7.7,7-7.7s7,3.4,7,7.7s-2.8,7.7-7,7.7S191.9,137.9,191.9,133.6z M203.1,133.6    c0-3.2-1.6-5.4-4.1-5.4s-4.2,2.3-4.2,5.4s1.6,5.4,4.1,5.4S203.1,136.7,203.1,133.6L203.1,133.6z"/>
		<path class="st1" d="M217.2,139.4c-1.1,1.1-2.6,1.9-4.4,1.9c-2.7,0-4.7-1.8-4.7-4.6c0-2,1-3.3,2.5-4c1-0.5,2.2-0.7,3.7-0.8    l2.7-0.1V131c0-2.1-1.3-3-3.1-3c-1.7,0-3,0.5-4,1.1l-1-1.9c1.7-1,3.6-1.5,5.3-1.5c3.3,0,5.5,1.6,5.5,5.1v5.4    c0,2.5,0.1,3.9,0.3,4.6h-2.4L217.2,139.4L217.2,139.4z M209.8,122.9c0-1.6,1-2.5,2.3-2.5c1.7,0,3,1.5,4,1.5c0.6,0,0.8-0.5,0.8-1.3    h1.9v0.9c0,1.5-1,2.4-2.3,2.4c-1.7,0-3-1.4-4-1.4c-0.6,0-0.8,0.5-0.8,1.2h-1.9V122.9L209.8,122.9z M214.6,133.9    c-1.2,0-2,0.2-2.6,0.5c-0.8,0.4-1.1,1.2-1.1,2.1c0,1.5,1,2.5,2.6,2.5c1.7,0,2.9-1,3.6-1.7v-3.6L214.6,133.9L214.6,133.9z"/>
		<path class="st1" d="M222.7,133.6c0-4.4,2.8-7.7,7-7.7s7,3.4,7,7.7s-2.8,7.7-7,7.7S222.7,137.9,222.7,133.6z M233.8,133.6    c0-3.2-1.6-5.4-4.1-5.4s-4.2,2.3-4.2,5.4s1.6,5.4,4.1,5.4S233.8,136.7,233.8,133.6L233.8,133.6z"/>
		<path class="st1" d="M247.1,120.4h4.2c2,0,3.4,0.3,4.5,0.9c1.9,1.1,3.1,3,3.1,5.6c0,2.4-1,4.6-3.6,5.8c-1.1,0.5-2.4,0.8-4.2,0.8    h-1.2v7.4h-2.8L247.1,120.4L247.1,120.4z M251.2,131.2c1.2,0,2.1-0.2,2.8-0.6c1.3-0.7,2-2,2-3.7c0-1.6-0.6-2.9-1.8-3.7    c-0.7-0.4-1.6-0.7-2.9-0.7h-1.4v8.6H251.2L251.2,131.2z"/>
		<path class="st1" d="M263.8,134.2c0,2.8,1.8,4.8,4.6,4.8c1.4,0,2.6-0.4,3.7-1l0.8,1.9c-1.4,0.9-3.1,1.3-4.8,1.3    c-4.9,0-7.1-3.6-7.1-7.8c0-4.5,2.5-7.6,6.2-7.6s6.1,3,6.1,7.7v0.7H263.8L263.8,134.2z M270.4,132.1c0-2.1-1-4.1-3.2-4.1    s-3.4,1.9-3.4,4.1H270.4L270.4,132.1z"/>
		<path class="st1" d="M275.9,137.9c0.9,0.6,2.2,1.1,3.8,1.1s3-0.6,3-2.1c0-3-6.9-2-6.9-6.9c0-2.3,1.8-4.2,5.2-4.2    c1.5,0,2.8,0.3,3.9,0.7v2.4c-1.1-0.5-2.3-0.8-3.7-0.8c-1.4,0-2.6,0.4-2.6,1.8c0,3,6.9,1.9,6.9,7c0,3-2.6,4.4-5.6,4.4    c-2.1,0-3.7-0.6-4.8-1.3L275.9,137.9L275.9,137.9z"/>
		<path class="st1" d="M288,137.9c0.9,0.6,2.2,1.1,3.8,1.1s3-0.6,3-2.1c0-3-6.9-2-6.9-6.9c0-2.3,1.8-4.2,5.2-4.2    c1.5,0,2.8,0.3,3.9,0.7v2.4c-1.1-0.5-2.3-0.8-3.7-0.8c-1.4,0-2.6,0.4-2.6,1.8c0,3,6.9,1.9,6.9,7c0,3-2.6,4.4-5.6,4.4    c-2.1,0-3.7-0.6-4.8-1.3L288,137.9L288,137.9z"/>
		<path class="st1" d="M299.6,133.6c0-4.4,2.8-7.7,7-7.7s7,3.4,7,7.7s-2.8,7.7-7,7.7S299.6,137.9,299.6,133.6z M310.8,133.6    c0-3.2-1.6-5.4-4.1-5.4s-4.2,2.3-4.2,5.4s1.6,5.4,4.1,5.4S310.8,136.7,310.8,133.6L310.8,133.6z"/>
		<path class="st1" d="M324.9,139.4c-1.1,1.1-2.6,1.9-4.4,1.9c-2.7,0-4.7-1.8-4.7-4.6c0-2,1-3.3,2.5-4c1-0.5,2.2-0.7,3.7-0.8    l2.7-0.1V131c0-2.1-1.3-3-3-3c-1.7,0-3,0.5-4,1.1l-1-1.9c1.7-1,3.6-1.5,5.3-1.5c3.3,0,5.5,1.6,5.5,5.1v5.4c0,2.5,0.1,3.9,0.3,4.6    h-2.4L324.9,139.4L324.9,139.4z M322.3,133.9c-1.2,0-2,0.2-2.6,0.5c-0.8,0.4-1.1,1.2-1.1,2.1c0,1.5,1,2.5,2.6,2.5    c1.7,0,2.9-1,3.6-1.7v-3.6L322.3,133.9L322.3,133.9z"/>
	</g>
</g>
</svg>